<svg width="13" height="13" viewBox="0 0 13 13" fill="none" xmlns="http://www.w3.org/2000/svg">
<path d="M1.05057 1.05057C1.20294 0.898247 1.40956 0.812678 1.62501 0.812678C1.84046 0.812678 2.04708 0.898247 2.19945 1.05057L6.50001 5.35113L10.8006 1.05057C10.8755 0.972965 10.9652 0.911067 11.0643 0.868485C11.1634 0.825903 11.2701 0.803489 11.3779 0.802551C11.4858 0.801614 11.5928 0.822172 11.6927 0.863025C11.7925 0.903878 11.8832 0.964209 11.9595 1.0405C12.0358 1.11678 12.0961 1.2075 12.137 1.30735C12.1778 1.40721 12.1984 1.5142 12.1975 1.62208C12.1965 1.72996 12.1741 1.83658 12.1315 1.93571C12.0889 2.03484 12.027 2.12449 11.9494 2.19944L7.64888 6.5L11.9494 10.8006C12.0975 10.9538 12.1793 11.159 12.1775 11.3721C12.1756 11.5851 12.0902 11.7889 11.9395 11.9395C11.7889 12.0902 11.5851 12.1756 11.3721 12.1775C11.159 12.1793 10.9538 12.0974 10.8006 11.9494L6.50001 7.64888L2.19945 11.9494C2.04621 12.0974 1.84097 12.1793 1.62793 12.1775C1.4149 12.1756 1.21111 12.0902 1.06047 11.9395C0.909825 11.7889 0.824376 11.5851 0.822525 11.3721C0.820673 11.159 0.902569 10.9538 1.05057 10.8006L5.35113 6.5L1.05057 2.19944C0.898252 2.04708 0.812683 1.84045 0.812683 1.625C0.812683 1.40956 0.898252 1.20293 1.05057 1.05057Z" fill="white"/>
</svg>
