<svg width="37" height="37" viewBox="0 0 37 37" fill="none" xmlns="http://www.w3.org/2000/svg">
<path d="M18.5 0C8.28371 0 0 8.28371 0 18.5C0 28.7163 8.28371 37 18.5 37C28.7163 37 37 28.7163 37 18.5C37 8.28371 28.7163 0 18.5 0ZM15.1964 24.7768C15.1964 24.9585 15.0478 25.1071 14.8661 25.1071H12.8839C12.7022 25.1071 12.5536 24.9585 12.5536 24.7768V12.2232C12.5536 12.0415 12.7022 11.8929 12.8839 11.8929H14.8661C15.0478 11.8929 15.1964 12.0415 15.1964 12.2232V24.7768ZM24.4464 24.7768C24.4464 24.9585 24.2978 25.1071 24.1161 25.1071H22.1339C21.9522 25.1071 21.8036 24.9585 21.8036 24.7768V12.2232C21.8036 12.0415 21.9522 11.8929 22.1339 11.8929H24.1161C24.2978 11.8929 24.4464 12.0415 24.4464 12.2232V24.7768Z" fill="white"/>
</svg>
