<svg width="37" height="37" viewBox="0 0 37 37" fill="none" xmlns="http://www.w3.org/2000/svg">
<path d="M18.5 0C8.28371 0 0 8.28371 0 18.5C0 28.7163 8.28371 37 18.5 37C28.7163 37 37 28.7163 37 18.5C37 8.28371 28.7163 0 18.5 0ZM24.4506 18.7849L15.4318 25.3467C15.3824 25.3822 15.3241 25.4034 15.2634 25.408C15.2027 25.4125 15.1419 25.4003 15.0877 25.3725C15.0335 25.3448 14.988 25.3026 14.9562 25.2507C14.9243 25.1988 14.9075 25.1391 14.9074 25.0782V11.9631C14.9072 11.9021 14.9239 11.8422 14.9556 11.7901C14.9874 11.738 15.0329 11.6957 15.0872 11.6679C15.1415 11.6401 15.2025 11.6279 15.2633 11.6326C15.3241 11.6373 15.3824 11.6588 15.4318 11.6946L24.4506 18.2522C24.4932 18.2824 24.5279 18.3223 24.5519 18.3686C24.5759 18.415 24.5884 18.4664 24.5884 18.5186C24.5884 18.5708 24.5759 18.6222 24.5519 18.6685C24.5279 18.7149 24.4932 18.7548 24.4506 18.7849Z" fill="white"/>
</svg>
